<mxfile host="app.diagrams.net" agent="Mozilla/5.0 (Macintosh; Intel Mac OS X 10_15_7) AppleWebKit/537.36 (KHTML, like Gecko) Chrome/130.0.0.0 Safari/537.36" version="24.8.4">
  <diagram name="第 1 页" id="rWPKQkLuWuZ8PZD2lPqP">
    <mxGraphModel dx="954" dy="496" grid="1" gridSize="10" guides="1" tooltips="1" connect="1" arrows="1" fold="1" page="1" pageScale="1" pageWidth="827" pageHeight="1169" math="0" shadow="0">
      <root>
        <mxCell id="0" />
        <mxCell id="1" parent="0" />
        <mxCell id="_XABRdzWqceoaRYIIhZ_-1" value="View" style="rounded=0;whiteSpace=wrap;html=1;verticalAlign=bottom;fontStyle=1;fontSize=23;" vertex="1" parent="1">
          <mxGeometry x="130" y="115" width="580" height="125" as="geometry" />
        </mxCell>
        <mxCell id="_XABRdzWqceoaRYIIhZ_-3" value="Draft" style="rounded=0;whiteSpace=wrap;html=1;" vertex="1" parent="1">
          <mxGeometry x="159" y="140" width="120" height="60" as="geometry" />
        </mxCell>
        <mxCell id="_XABRdzWqceoaRYIIhZ_-4" value="ImageGallery" style="rounded=0;whiteSpace=wrap;html=1;" vertex="1" parent="1">
          <mxGeometry x="289" y="140" width="120" height="60" as="geometry" />
        </mxCell>
        <mxCell id="_XABRdzWqceoaRYIIhZ_-5" value="EditPage" style="rounded=0;whiteSpace=wrap;html=1;" vertex="1" parent="1">
          <mxGeometry x="419" y="140" width="120" height="60" as="geometry" />
        </mxCell>
        <mxCell id="_XABRdzWqceoaRYIIhZ_-6" value="Export/Setting/Log" style="rounded=0;whiteSpace=wrap;html=1;" vertex="1" parent="1">
          <mxGeometry x="549" y="140" width="120" height="60" as="geometry" />
        </mxCell>
        <mxCell id="_XABRdzWqceoaRYIIhZ_-7" value="Controller" style="rounded=0;whiteSpace=wrap;html=1;verticalAlign=bottom;fontStyle=1;fontSize=23;" vertex="1" parent="1">
          <mxGeometry x="130" y="240" width="580" height="125" as="geometry" />
        </mxCell>
        <mxCell id="_XABRdzWqceoaRYIIhZ_-8" value="Model" style="rounded=0;whiteSpace=wrap;html=1;verticalAlign=bottom;fontStyle=1;fontSize=23;" vertex="1" parent="1">
          <mxGeometry x="130" y="365" width="580" height="125" as="geometry" />
        </mxCell>
        <mxCell id="_XABRdzWqceoaRYIIhZ_-2" value="&lt;font style=&quot;font-size: 16px;&quot;&gt;&lt;b&gt;VLME&lt;/b&gt;&lt;/font&gt;" style="rounded=0;whiteSpace=wrap;html=1;" vertex="1" parent="1">
          <mxGeometry x="470" y="260" width="240" height="60" as="geometry" />
        </mxCell>
        <mxCell id="_XABRdzWqceoaRYIIhZ_-9" value="Dispatcher" style="rounded=0;whiteSpace=wrap;html=1;" vertex="1" parent="1">
          <mxGeometry x="159" y="270" width="120" height="60" as="geometry" />
        </mxCell>
        <mxCell id="_XABRdzWqceoaRYIIhZ_-10" value="Project数据定义" style="rounded=0;whiteSpace=wrap;html=1;" vertex="1" parent="1">
          <mxGeometry x="159" y="397.5" width="120" height="60" as="geometry" />
        </mxCell>
        <mxCell id="_XABRdzWqceoaRYIIhZ_-11" value="数据序列化" style="rounded=0;whiteSpace=wrap;html=1;" vertex="1" parent="1">
          <mxGeometry x="289" y="397.5" width="120" height="60" as="geometry" />
        </mxCell>
        <mxCell id="_XABRdzWqceoaRYIIhZ_-12" value="缩略图序列化" style="rounded=0;whiteSpace=wrap;html=1;" vertex="1" parent="1">
          <mxGeometry x="414" y="397.5" width="120" height="60" as="geometry" />
        </mxCell>
      </root>
    </mxGraphModel>
  </diagram>
</mxfile>
